<svg width="163" height="41" viewBox="0 0 163 41" fill="none" xmlns="http://www.w3.org/2000/svg">
<g clip-path="url(#clip0_1_1031)">
<mask id="mask0_1_1031" style="mask-type:luminance" maskUnits="userSpaceOnUse" x="0" y="0" width="163" height="41">
<path d="M162.902 0H0V40.6173H162.902V0Z" fill="white"/>
</mask>
<g mask="url(#mask0_1_1031)">
<path d="M9.81134 34.2056C3.78505 34.2056 0 30.3555 0 23.9283V23.8932C0 17.5401 3.87908 13.6548 9.79568 13.6548C15.7123 13.6548 19.6266 17.5049 19.6266 23.8932V23.9283C19.6266 30.3751 15.8024 34.2056 9.81526 34.2056H9.81134ZM9.83093 29.9884C12.4562 29.9884 14.1371 27.7784 14.1371 23.9283V23.8932C14.1371 20.0821 12.417 17.872 9.79568 17.872C7.17435 17.872 5.4895 20.0821 5.4895 23.8932V23.9283C5.4895 27.794 7.17043 29.9884 9.83093 29.9884ZM22.4164 33.7995V14.0571H27.8119V17.298H27.9216C28.9364 15.0332 30.97 13.6509 33.9635 13.6509C38.3245 13.6509 40.801 16.4311 40.801 21.0544V33.7995H35.4055V22.1595C35.4055 19.5823 34.1869 18.1063 31.7655 18.1063C29.3439 18.1063 27.8119 19.8751 27.8119 22.4523V33.7956H22.4164V33.7995ZM53.2414 34.2056C47.1798 34.2056 43.5006 30.2813 43.5006 23.9673V23.9479C43.5006 17.6689 47.2152 13.6509 53.0181 13.6509C58.8211 13.6509 62.4611 17.5752 62.4611 23.5417V25.1973H48.8216C48.8765 28.3484 50.5966 30.1876 53.3511 30.1876C55.5689 30.1876 56.9168 28.9732 57.3047 27.8681L57.34 27.7588H62.2926L62.2377 27.9619C61.6266 30.8709 58.8916 34.2056 53.2376 34.2056H53.2414ZM53.1121 17.6689C50.8944 17.6689 49.2292 19.1411 48.8805 21.8119H57.289C56.956 19.0864 55.3495 17.6689 53.1121 17.6689ZM73.5537 34.1704C68.2132 34.1704 64.6476 30.3204 64.6476 24.2251V24.1899C64.6476 18.0945 68.2327 14.2796 73.5381 14.2796C78.8434 14.2796 82.4443 18.0751 82.4443 24.1899V24.2251C82.4443 30.3399 78.859 34.1704 73.5537 34.1704ZM73.5734 31.3317C76.9548 31.3317 79.1529 28.7155 79.1529 24.2211V24.186C79.1529 19.6916 76.9352 17.1144 73.5342 17.1144C70.1331 17.1144 67.935 19.7112 67.935 24.186V24.2211C67.935 28.7351 70.1723 31.3317 73.5734 31.3317ZM85.6964 33.7995V14.6467H88.9134V17.8876H88.9877C89.6343 15.6775 91.2995 14.2796 93.4585 14.2796C94.015 14.2796 94.4929 14.3733 94.7516 14.4084V17.5205C94.4929 17.4268 93.8073 17.3371 93.0314 17.3371C90.5355 17.3371 88.9095 19.0668 88.9095 21.9799V33.8035H85.6926L85.6964 33.7995ZM99.1871 11.4057C98.0782 11.4057 97.173 10.5037 97.173 9.39865C97.173 8.29361 98.0782 7.39161 99.1871 7.39161C100.296 7.39161 101.201 8.27408 101.201 9.39865C101.201 10.5232 100.315 11.4057 99.1871 11.4057ZM97.5766 33.7995V14.6467H100.794V33.7995H97.5766ZM113.305 40.6173C108.556 40.6173 105.562 38.3876 104.931 35.5528L104.896 35.3888H108.129L108.203 35.5528C108.814 36.9351 110.644 37.7824 113.265 37.7824C116.647 37.7824 118.571 35.9237 118.571 32.9561V30.5077H118.496C117.352 32.6241 115.134 33.9869 112.38 33.9869C107.537 33.9869 104.23 30.1017 104.23 24.1157V24.0961C104.23 18.1492 107.576 14.2796 112.454 14.2796C115.17 14.2796 117.313 15.7517 118.496 17.8876H118.571V14.6467H121.788V33.2645C121.788 37.7043 118.516 40.6135 113.305 40.6135V40.6173ZM113.085 31.1481C116.357 31.1481 118.575 28.368 118.575 24.1119V24.0923C118.575 19.8751 116.337 17.1105 113.085 17.1105C109.668 17.1105 107.521 19.8361 107.521 24.0923V24.1119C107.521 28.4579 109.665 31.1481 113.085 31.1481ZM127.759 11.4057C126.65 11.4057 125.745 10.5037 125.745 9.39865C125.745 8.29361 126.65 7.39161 127.759 7.39161C128.868 7.39161 129.773 8.27408 129.773 9.39865C129.773 10.5232 128.888 11.4057 127.759 11.4057ZM126.149 33.7995V14.6467H129.366V33.7995H126.149ZM133.746 33.7995V14.6467H136.963V17.3721H137.038C138.072 15.5837 140.03 14.2796 142.95 14.2796C147.163 14.2796 149.604 17.0051 149.604 21.3707V33.8035H146.387V21.9447C146.387 18.8325 144.925 17.1184 141.971 17.1184C139.017 17.1184 136.963 19.2737 136.963 22.5343V33.8073H133.746V33.7995Z" fill="white"/>
<mask id="mask1_1_1031" style="mask-type:luminance" maskUnits="userSpaceOnUse" x="143" y="0" width="20" height="19">
<path d="M162.902 0H143.988V18.8483H162.902V0Z" fill="white"/>
</mask>
<g mask="url(#mask1_1_1031)">
<path d="M145.376 0.0779248C146.708 0.15602 148.02 0.362972 149.294 0.745638C155.128 2.49497 159.269 6.15374 161.582 11.7883C162.871 14.9277 163.188 18.2039 162.651 21.5463C161.863 26.4624 159.5 30.4804 155.52 33.4832C151.108 36.81 146.12 37.9073 140.685 36.9311C136.995 36.2673 133.797 34.5921 131.125 31.972C127.802 28.7116 125.953 24.7443 125.596 20.1016C125.467 18.4147 125.534 16.7317 125.867 15.08C126.25 13.155 126.913 11.3236 127.888 9.60556C128.833 7.94213 129.981 6.4388 131.38 5.13461C134.538 2.18649 138.276 0.511352 142.594 0.128687C142.594 0.128687 143.914 0.00373422 145.376 0.089639V0.0779248ZM159.07 18.6256C159.07 10.4216 152.432 3.81478 144.164 3.81869C136.038 3.8226 129.33 10.3592 129.33 18.6451C129.33 26.8139 135.96 33.4949 144.294 33.452C152.359 33.4129 159.054 27.0129 159.07 18.6256Z" fill="url(#paint0_linear_1_1031)"/>
<path d="M129.922 18.5671C129.898 10.7575 136.375 4.33029 144.357 4.4201C151.832 4.50601 158.537 10.4881 158.412 18.8716C158.294 26.6851 151.99 32.9171 143.977 32.8156C135.925 32.7179 129.883 26.2087 129.922 18.5632V18.5671ZM153.608 18.6569C153.593 13.2214 149.153 9.07849 143.965 9.19953C138.487 9.3284 134.318 14.1 134.753 19.3245C135.145 24.0649 139.017 28.1689 144.436 28.0244C149.999 27.8721 153.616 23.3152 153.608 18.6569Z" fill="white"/>
</g>
</g>
</g>
<defs>
<linearGradient id="paint0_linear_1_1031" x1="125.537" y1="18.6568" x2="162.55" y2="18.6568" gradientUnits="userSpaceOnUse">
<stop stop-color="#5B5A57"/>
<stop offset="1" stop-color="white"/>
</linearGradient>
<clipPath id="clip0_1_1031">
<rect width="163" height="41" fill="white"/>
</clipPath>
</defs>
</svg>
