<?xml version="1.0" standalone="no"?>
<!DOCTYPE svg PUBLIC "-//W3C//DTD SVG 20010904//EN"
 "http://www.w3.org/TR/2001/REC-SVG-20010904/DTD/svg10.dtd">
<svg version="1.0" xmlns="http://www.w3.org/2000/svg"
 width="470.000000pt" height="470.000000pt" viewBox="0 0 470.000000 470.000000"
 preserveAspectRatio="xMidYMid meet">

<g transform="translate(0.000000,470.000000) scale(0.100000,-0.100000)"
fill="#000000" stroke="none">
<path d="M1030 4348 c-147 -14 -269 -77 -383 -197 -79 -84 -132 -177 -157
-277 -19 -75 -20 -118 -20 -1493 0 -863 4 -1442 10 -1483 21 -146 83 -278 171
-367 68 -68 222 -151 324 -173 48 -10 317 -12 1370 -10 737 1 1345 7 1390 12
160 19 312 123 409 279 100 162 91 12 94 1459 3 1459 14 1295 -101 1437 -75
92 -247 259 -447 435 -47 41 -146 133 -220 206 -74 72 -155 142 -180 155 l-45
24 -1070 0 c-588 0 -1104 -3 -1145 -7z m1875 -244 l140 -7 0 -306 c0 -278 2
-311 19 -358 27 -72 82 -141 140 -178 l49 -30 191 0 c105 0 268 4 362 8 l172
8 4 -33 c2 -18 4 -544 4 -1168 l-1 -1135 -32 -67 c-37 -79 -90 -133 -175 -179
l-63 -33 -1225 -6 c-1387 -6 -1492 -4 -1562 29 -104 50 -169 146 -187 276 -13
89 -14 2733 -2 2829 12 89 66 200 124 253 24 22 70 51 103 64 l59 24 810 5
c446 3 837 6 870 8 33 1 123 -1 200 -4z m502 -216 c77 -82 298 -288 384 -360
l44 -37 -80 -1 c-44 0 -142 -5 -218 -10 -108 -8 -145 -7 -165 2 -38 19 -75 91
-75 147 0 38 11 330 12 339 3 12 30 -10 98 -80z"/>
<path d="M1350 3851 c-174 -6 -187 -7 -219 -30 -55 -40 -59 -60 -62 -341 -3
-226 -1 -259 14 -287 43 -80 154 -81 221 -3 l26 32 0 205 0 206 48 -6 c26 -4
108 -9 182 -13 l135 -6 28 30 c40 42 46 96 15 141 -50 75 -89 82 -388 72z"/>
<path d="M2165 3210 c-107 -35 -157 -67 -248 -157 -48 -48 -80 -91 -108 -147
-21 -43 -39 -85 -39 -93 0 -10 -6 -12 -20 -8 -30 10 -127 -13 -195 -46 -117
-56 -215 -168 -261 -298 -35 -99 -33 -229 5 -338 56 -161 137 -257 279 -331
130 -69 157 -71 757 -71 649 0 705 6 837 93 100 66 211 216 245 330 73 250
-40 495 -282 612 -54 27 -82 34 -128 34 -46 0 -59 3 -63 18 -3 9 -22 51 -41
92 -47 99 -176 230 -273 277 -148 73 -309 84 -465 33z m298 -250 c128 -40 221
-157 251 -320 12 -62 22 -91 40 -109 23 -22 27 -23 70 -12 105 26 204 8 270
-50 61 -54 86 -109 85 -190 -1 -119 -50 -199 -155 -250 l-69 -34 -594 -3 -595
-3 -64 32 c-179 88 -233 344 -96 457 61 50 122 66 226 58 84 -5 90 -5 112 17
16 16 27 45 35 92 21 119 91 231 175 280 93 55 205 67 309 35z"/>
<path d="M1131 1568 c-19 -12 -45 -43 -57 -68 -22 -44 -22 -50 -14 -276 8
-247 13 -271 62 -307 32 -24 149 -36 365 -37 127 0 147 2 188 22 94 46 107
151 27 218 l-37 32 -174 -5 -174 -4 6 165 c6 186 1 214 -52 252 -48 33 -99 37
-140 8z"/>
<path d="M3433 1559 c-58 -37 -63 -62 -52 -258 5 -96 7 -176 5 -179 -3 -2 -48
1 -100 7 -52 6 -128 11 -169 11 -74 0 -75 0 -111 -40 -64 -71 -61 -118 12
-191 l47 -47 240 5 c146 3 249 9 263 16 12 6 33 27 45 46 21 34 22 47 25 300
2 227 1 267 -13 288 -40 60 -131 81 -192 42z"/>
</g>
</svg>
